<?xml version="1.0" encoding="UTF-8"?>
<svg id="_圖層_1" data-name="圖層_1" xmlns="http://www.w3.org/2000/svg" version="1.1" viewBox="0 0 759.81 80.52">
  <!-- Generator: Adobe Illustrator 30.6.0, SVG Export Plug-In . SVG Version: 2.1.4 Build 109)  -->
  <defs>
    <style>
      .st0 {
        fill: #c8161e;
      }

      .st1 {
        fill: #1d2088;
      }
    </style>
  </defs>
  <g>
    <path class="st0" d="M142.84,63.2c2.16,2.66,4.93,4.56,8.21,5.63,3.29,1.09,6.74,1.39,10.25.91,4.01-.54,7.64-2.09,10.79-4.62,3.12-2.5,5.13-6.05,5.94-10.55.11-2.24-.07-4.35-.56-6.2-.49-1.85-1.19-3.54-2.1-5.02-.91-1.49-2.02-2.87-3.28-4.1-1.3-1.26-2.68-2.44-4.1-3.49-1.14-.82-2.47-1.78-3.99-2.89-1.51-1.1-3.12-2.24-4.79-3.43-1.68-1.2-3.38-2.41-5.11-3.65-1.71-1.23-3.33-2.46-4.81-3.65-2.36-1.88-3.8-3.91-4.27-6.04-.49-2.18.38-4.38,2.56-6.51,1.12-1.09,2.44-1.92,3.93-2.47,2.65-.96,4.94-.95,7.54,0,1.09.4,2.2.89,3.3,1.47,1.09.57,2.11,1.17,3.01,1.77.92.61,1.72,1.2,2.38,1.75.78.63,1.52.88,2.29.74.79-.15,1.33-.38,1.62-.7.48-.56.75-1.19.82-1.85.07-.64-.05-1.16-.37-1.6-1.78-2.32-4.2-4.36-7.18-6.05-2.97-1.68-6.14-2.53-9.45-2.54-2.38.04-4.63.47-6.65,1.26-2.03.81-3.84,1.91-5.39,3.26-1.55,1.36-2.8,2.92-3.71,4.64-.91,1.71-1.42,3.57-1.52,5.52-.1,1.87.24,3.84.99,5.85.75,2,2.05,3.9,3.85,5.64,3.84,3.11,7.73,5.97,11.54,8.46,3.81,2.48,7.44,5.17,10.8,7.99,2.26,1.77,3.82,3.74,4.63,5.86.82,2.13.96,4.19.41,6.13-.45,1.83-1.44,3.48-2.93,4.86-1.5,1.39-3.42,2.3-5.74,2.71-2.99.54-5.85.33-8.52-.65-2.64-.96-4.94-2.42-6.84-4.35-.27-.18-.65-.28-1.12-.31-.39-.02-.85,0-1.36.1-1.15.21-1.97.63-2.45,1.26-.25.35-.23,1.1.07,2.12.35,1.15.79,2.06,1.3,2.72Z"/>
    <g>
      <path class="st0" d="M250.2,6.8c-.51-.9-1.12-1.45-1.84-1.67-3.92-.48-8.05-.75-12.12-.75-15.67,0-31.56,3.88-47.24,11.53-1.41.95-2.49,2.26-3.11,3.82.06.73.56,1.52,1.49,2.33.49.43,1.1.64,1.88.64.71,0,1.54-.18,2.48-.53,9.08-3.51,18.39-6.34,27.67-8.39,7.53-1.66,15.42-2.51,23.46-2.51,1.91,0,3.87.05,5.81.14.16.01.26.02.37.02.72,0,.88-.26.94-.36.33-.53.58-1.24.76-2.1.14-.56-.06-1.3-.55-2.18Z"/>
      <path class="st0" d="M225.39,21.88c0-.93-.42-1.82-1.23-2.76-.53-.61-1.35-.91-2.49-.91-.44,0-.92.05-1.44.14-.65.17-.98.4-1.12.56-.22.26-.37.56-.43.92-.08.42-.08.85,0,1.26.11.63.16,1.14.16,1.57.49,6.75.81,13.64.95,20.41.15,6.79.27,13.61.37,20.44.08,1.05.38,2.04.89,2.88.1.16.39.65,1.73.65.33,0,.7-.03,1.1-.09.83-.15,1.53-.55,2.12-1.22.58-.65.86-1.38.86-2.21.19-6.91.19-13.89,0-20.77-.2-6.9-.69-13.92-1.46-20.87Z"/>
    </g>
    <path class="st0" d="M316.12,62.69c.73-1.67.85-2.91.34-3.67-.58-.89-1.1-1.57-1.55-2.02-3.61-2.66-7.29-5.19-10.87-7.48-3.52-2.24-7.34-4.63-11.67-7.3l-.67-.42.67-.42c5.57-3.45,9.64-7.58,12.1-12.26,2.44-4.65,2.85-9.97,1.22-15.8-.93-3.32-2.69-6.12-5.24-8.32-2.53-2.19-5.73-3.3-9.5-3.3-2.58,0-5.43.4-8.5,1.18-3.06.78-5.96,1.98-8.61,3.54-2.65,1.56-4.87,3.51-6.62,5.81-1.72,2.25-2.59,4.95-2.59,8.02,0,.74.39,1.48,1.16,2.22.51.49,1.22,1.04,1.83.9.87-.34,1.6-.94,2.1-1.76.5-.82.64-1.74.42-2.82l-.05-.24.17-.18c1.86-2.02,3.88-3.77,6.01-5.22,2.14-1.45,4.36-2.54,6.6-3.23,2.24-.69,4.43-.99,6.57-.92,2.14.08,4.15.67,5.98,1.75,1.27.76,2.24,1.82,2.88,3.14.62,1.29,1.02,2.67,1.18,4.11.16,1.44.14,2.87-.06,4.26-.21,1.4-.52,2.61-.93,3.59-1.06,2.62-2.86,4.98-5.35,7.01-2.49,2.04-5.61,3.41-9.26,4.05l-.55.1-.02-.56c-.08-2.57-.11-5.16-.06-7.69.04-2.56.1-5.11.18-7.67-.14-1.37-.46-2.49-.94-3.26-.44-.7-1.28-1.12-2.57-1.26-.05,0-.11-.02-.18-.02-.29,0-.72.11-1.38.49-.61.35-.9.81-.9,1.44-.16,3.11-.26,6.61-.3,10.42-.05,3.83-.06,7.72-.06,11.67s.06,7.77.18,11.54c.13,3.88.3,7.16.54,10.02v.04c0,.18.06.53.32,1.2.22.56.52,1.14.86,1.72.36.59.71,1.07,1.08,1.48.33.36.67.56,1.03.62.79,0,1.48-.19,2.04-.58.5-.35.75-.98.75-1.94-.16-2.99-.26-6.12-.3-9.27-.04-3.15-.1-6.32-.18-9.51l-.02-.88.76.45c2.16,1.28,4.44,2.66,6.84,4.13,2.52,1.56,4.87,3.05,7.19,4.56,2.31,1.5,4.63,3.07,6.9,4.68,2.17,1.54,4.18,3.06,5.95,4.51.99.7,2.01.99,3.06.91.98-.1,1.65-.61,2.05-1.56Z"/>
    <path class="st0" d="M386.28,51.87c.28-.24.44-.41.53-.51-.04-.56-.19-.97-.47-1.25-.38-.38-.89-.62-1.55-.72-.42-.07-.86-.1-1.33-.1-.5,0-1.02.04-1.57.11-1.18.15-2.31.37-3.36.66-2.35.53-5.12,1.18-8.38,1.96-3.29.78-6.73,1.54-10.24,2.26-3.52.73-7.04,1.33-10.45,1.81-3.42.47-6.39.72-8.85.72h-1.5l-.06-1.5c-.21-5.31-.21-10.69,0-16l.05-1.3,1.29-.18c5.08-.73,10.06-1.43,14.94-2.1,4.88-.67,9.65-1.32,14.33-1.95,2.39-.27,4.16-.83,5.15-1.62.64-.51.79-.83.8-1.03-1.41-1.42-2.99-2.45-4.71-3.05-1.44-.5-2.92-.76-4.42-.76-.43,0-.86.02-1.3.06-2.69.21-6.33.6-10.84,1.16-4.58.58-9.06,1.23-13.32,1.94l-1.89.31.07-1.91.13-3.23.19-4.86c.1-2.7.26-5.45.47-8.15,0,0-.03-.14-.06-.29-.07-.35-.1-.69-.1-.99v-1.35l1.33-.2c2.09-.31,4.32-.6,6.67-.86,2.32-.26,4.64-.54,6.96-.85,2.34-.31,4.61-.6,6.79-.86,2.17-.26,4.03-.49,5.58-.7,1.29-.17,2.33-.54,3.09-1.11.2-.15.52-.38.37-1.21-1.49-1.41-3.07-2.38-4.72-2.89-1.36-.42-2.78-.63-4.22-.63-.49,0-.98.02-1.47.07-1.89.11-4.13.31-6.74.62-2.63.31-5.37.68-8.21,1.08-2.78.41-5.56.87-8.25,1.39-2.63.51-4.86.96-6.7,1.37-.71.27-1.18.61-1.4,1.02-.29.55-.44,1.15-.44,1.83,0,.75.28,1.39.89,2.04.65.7,1.36,1.1,2.18,1.25l1.38.25-.1,1.4c-.21,2.98-.36,6.02-.46,9.05-.1,3.01-.26,6.09-.47,9.15l-.06.95-.87.38c-1.15.5-1.73,1.36-1.88,2.78,0,1.14.6,2.1,1.89,2.85l.81.47-.04.94c-.21,5.12-.21,10.26,0,15.28.09,3.25.89,5.71,2.39,7.33,1.38,1.5,3.38,2.23,6.12,2.23h.46c5.8-.11,11.82-.91,17.88-2.38,6.16-1.49,12.51-3.28,18.88-5.34.84-.28,1.85-.7,3-1.24,1.15-.55,2.25-1.15,3.27-1.78,1.01-.63,1.86-1.23,2.53-1.81Z"/>
    <path class="st0" d="M451.53,67.2c.22-.71.34-1.49.36-2.34.02-.89,0-1.78-.11-2.63l-.02-.17c-.09-.81-.16-1.42-.21-1.82-.98-2.48-1.94-5.13-2.82-7.75-.9-2.67-1.8-5.41-2.69-8.22l-.13-.42.41-.17c1.78-.76,3.03-1.57,3.73-2.38.64-.76.78-1.68.41-2.83-.29-.88-.92-1.42-1.92-1.64-1.13-.25-2.16-.37-3.06-.37-.17.06-.43.11-.66.14-.19.02-.41.06-.66.12l-.45.11-.13-.45c-1.35-4.75-2.64-9.51-3.82-14.14-1.23-4.76-2.27-9.37-3.1-13.71-.53-1.47-1.01-2.67-1.41-3.52-.41-.85-.74-1.46-1.03-1.88-.33-.47-.56-.61-.66-.65-.25-.09-.49-.15-.68-.16-.53-.04-1.06.03-1.62.22-.56.18-1.05.42-1.48.71l-.23.16-.25-.12c-.18-.09-.39-.14-.61-.16-.17-.01-.36,0-.56.03-.43.07-.84.36-1.24.9-2.84,4.07-5.72,8.72-8.55,13.81-2.81,5.07-5.48,10.41-7.95,15.86-2.46,5.45-4.7,10.99-6.65,16.47-1.96,5.5-3.49,10.81-4.55,15.78-.26,1.29-.05,2.35.65,3.25.66.86,1.7,1.15,3.16.87.65-.09,1.32-.63,2.01-1.6.74-1.05,1.38-2.27,1.9-3.63,1.02-3.1,2.1-6.18,3.22-9.17l3.61-9.6h.35c4.02.16,8.21.15,12.45-.03,4.23-.18,8.18-.47,11.75-.87l.4-.04.12.38c.97,2.99,2,5.97,3.08,8.86,1.07,2.9,2.24,5.85,3.47,8.77.2.51.51,1.09.91,1.73.4.65.87,1.26,1.4,1.84.51.56,1.07,1.04,1.64,1.4.48.31.95.38,1.42.22.36-.15.64-.52.83-1.13ZM435.81,38.12c-6.55.77-12.75,1.02-18.45.74l-.7-.04.27-.64c3.56-8.5,7.68-17.07,12.26-25.47l.65-1.19.25,1.33c1.63,8.44,3.69,16.73,6.13,24.63l.17.56-.58.07Z"/>
    <path class="st0" d="M549.03,68.63c-.41-9.91-.86-19.83-1.32-29.76-.46-9.81-1.15-19.83-2.05-29.79-.23-1.47-.82-2.81-1.8-4.04-.44-.56-1.11-1.23-1.8-1.28-.14-.01-.29,0-.44.05-.93.26-1.79.84-2.63,1.76-.85.93-1.4,1.86-1.64,2.75l-.06.21-.14.17c-4.79,5.73-9.24,11.76-13.21,17.91-4,6.21-7.94,12.25-11.82,18.13l-.81,1.23-.81-1.23c-3.67-5.55-7.51-11.1-11.42-16.49-3.91-5.4-8.16-10.77-12.61-15.96l-.25-.29v-.38c.06-1.8-.33-3.22-1.16-4.24-.82-1-1.84-1.53-3.13-1.63-.77-.06-2.83-.22-3.2,4.66-.36,3.5-.71,7.42-1.04,11.67-.33,4.31-.59,8.68-.77,12.98-.19,4.43-.25,8.81-.19,13,.06,4.23.39,8.16.99,11.68.16,1.08.81,2.13,1.91,3.14.72.66,1.42,1.01,2.14,1.07.31.02.64,0,.97-.1.06-.02.42-.18.94-1.01.38-.61.53-1.32.44-2.2-.42-6.05-.57-12.29-.43-18.59.14-6.28.56-12.77,1.26-19.3l.26-2.4,1.48,1.91c3.52,4.52,7,9.17,10.35,13.82,3.31,4.6,6.53,9.59,9.58,14.84,1.23,2.7,2.96,4.06,5.33,4.24,1.42.11,3.12-1.36,4.89-4.24l9.72-15.71c3.24-5.24,6.53-10.52,9.88-15.85l1.51-2.4.28,2.82c1.05,10.44,1.87,19.59,2.41,27.17.54,7.64.99,14.31,1.34,20.02-.02,1.45.43,2.95,1.33,4.53.81,1.42,1.61,2.19,2.32,2.25.75.06,1.48-.35,2.24-1.26.82-.97,1.19-2.23,1.15-3.87Z"/>
    <path class="st0" d="M577.18,58.53c1.01,2.08,2.35,3.86,3.99,5.31.49.02.88-.07,1.17-.29.47-.36.87-.82,1.18-1.37.32-.56.51-1.11.59-1.7.11-.81.09-1.23.08-1.41-.32-3.49-.51-7.46-.56-11.79-.06-4.33.03-8.79.24-13.27.22-4.54.56-9.06,1.01-13.45.47-4.5,1.01-8.7,1.62-12.49.19-1.38.05-2.42-.42-3.03-.48-.63-1.17-1-2.12-1.12s-1.39.19-1.65.44c-.59.56-1.12,1.27-1.58,2.13-.48.87-.85,1.8-1.12,2.77-.27.98-.46,1.8-.54,2.43-.64,3.96-1.18,8.1-1.6,12.31-.43,4.27-.74,8.5-.9,12.59-.17,4.09-.2,8.11-.08,11.96.11,3.73.35,7.09.71,10Z"/>
    <path class="st0" d="M659.62,59.27c1.99-8.16,3.68-17.02,5.03-26.32,1.36-9.42,2.59-18.71,3.66-27.62.05-1.5-.43-2.63-2.93-2.91l-.22-.02c-.74-.03-1.63.3-2.62.98-.52.35-1.39,1.04-1.35,1.66v.16s-.01.16-.01.16c-1.17,8.6-2.3,16.84-3.39,24.7-1.1,7.92-2.43,15.14-3.94,21.46l-.8,3.36-1.99-2.83c-1.95-2.78-4.03-5.86-6.18-9.16-2.17-3.32-4.55-6.69-7.09-10.02-2.56-3.36-5.42-6.71-8.49-9.96-3.05-3.23-6.46-6.32-10.13-9.19l-.57-.45-.03-.73c-.04-1.23-.31-2.22-.82-3.03-.38-.61-1.47-1.06-3.06-1.28h0c-.47-.02-1.05.35-1.65,1.01-.82.88-1.37,2.45-1.64,4.66-.3,2.31-.63,5.51-.99,9.53-.36,4.04-.7,8.23-1.02,12.59-.33,4.5-.56,8.58-.7,12.49-.14,3.89-.1,6.92.13,8.98.13,1.97.73,3.9,1.81,5.81,1.23,2.17,2.61,2.47,3.54,2.51.52.02.83-.02.99-.06.05-6.82.3-13.74.76-20.54.45-6.64.98-13.66,1.57-20.87l.27-3.27,2.37,2.27c2.82,2.71,5.54,5.65,8.06,8.76,2.53,3.12,4.96,6.27,7.23,9.38,2.29,3.13,4.46,6.25,6.43,9.27,1.96,3,3.81,5.76,5.52,8.27,1.15,1.62,2.65,2.92,4.46,3.84,1.82.92,2.91,1.14,3.5,1.17.14,0,.28,0,.41-.02,1.01-.2,1.8-.58,2.35-1.16.4-.43,1-1.4,1.55-3.57Z"/>
    <path class="st0" d="M759.37,31.28s-.38-.4-2.16-.4c-2.99-.1-6.15-.29-9.71-.56-3.48-.27-6.96-.48-10.34-.64-1.74-.08-3.47-.12-5.2-.12s-3.47.04-5.2.12c-3.4.16-6.69.6-9.79,1.32-1.96.53-3.39,1.3-4.19,2.27-1.08,1.31-1.16,1.96-1.16,2.12,0,.09,0,.36.39.79.42.46.88.82,1.42,1.11.56.3,1.15.51,1.81.65.65.13,1.19.2,1.59.21,2.41-.31,4.83-.55,7.18-.72,2.33-.16,4.66-.34,7-.56l1.7-.16v1.71c0,1.81.05,3.63.16,5.43.1,1.87.21,3.7.32,5.51l.04.68-.47.49c-2.18,2.3-5.27,4.15-9.17,5.51-3.82,1.33-7.69,2.06-11.5,2.16-.31,0-.62.01-.93.01-3.52,0-6.73-.61-9.56-1.82-3.37-1.43-5.36-4-5.73-7.42-.46-3.48,0-7.34,1.35-11.45,1.31-3.99,3.11-7.91,5.34-11.66,2.21-3.73,4.66-7.18,7.26-10.28,2.67-3.17,5.07-5.48,7.33-7.07,1.91-1.24,3.5-1.83,4.9-1.83.57,0,1.11.1,1.61.29,1.5.59,3.19,2.08,5.2,4.55.46.55.78.55.88.55.28,0,.63-.15,1.04-.43.49-.53.45-.87.43-1.02-.08-.59-.3-1.14-.68-1.68-.73-1.03-1.58-2.09-2.52-3.13-.91-1.01-1.94-1.89-3.05-2.62-1.04-.68-2.19-1.14-3.43-1.37-.45-.08-.93-.13-1.41-.13-.75,0-1.55.11-2.36.31-4.45,1.84-8.53,4.54-12.12,8.03-3.67,3.57-6.9,7.59-9.59,11.93-2.69,4.34-4.78,8.9-6.23,13.55-1.44,4.61-2.17,8.98-2.17,12.96s1.2,7.31,3.68,10.07c2.5,2.8,5.85,4.8,9.96,5.93,2.46.68,5.15,1.03,7.99,1.03,2,0,4.12-.17,6.3-.51,5.31-.81,10.82-2.95,16.37-6.34l2.06-1.26.3,2.39c.83,6.55,2.25,12.45,4.22,17.53,1.09,2.84,2.52,3.16,3.5,3.16,1.03,0,1.34-.37,1.44-.49.26-.31.33-.57.24-.94-.35-2.52-.7-5.41-1.07-8.84-.36-3.27-.7-6.79-1.05-10.74-.32-3.74-.62-7.45-.88-11.13-.27-3.71-.4-7.11-.4-10.1v-1.56h7.71c1.94,0,3.88.06,5.77.16.13,0,.26.01.38.01,1.26,0,2.51-.4,3.82-1.22,1.24-.77,1.82-1.78,1.82-3.15,0-.49-.14-.88-.43-1.24Z"/>
  </g>
  <g>
    <path class="st1" d="M.31,65.27L24.12,3.27c.76-1.97,2.65-3.27,4.76-3.27h3.29c2.07,0,3.93,1.25,4.72,3.17l25.14,61.41c1.37,3.35-1.09,7.03-4.72,7.03h0c-1.93,0-3.66-1.19-4.35-2.99l-7.1-18.42c-.06-.17-.22-.28-.4-.28h-29.35c-.18,0-.34.11-.4.28l-6.65,18.33c-.67,1.85-2.42,3.08-4.39,3.08h0c-3.27,0-5.53-3.28-4.36-6.34ZM19.16,42.2h23.04c.3,0,.51-.3.4-.58l-7.25-19.25c-1.2-3.16-2.23-6.03-3.11-8.6-.58-1.72-3-1.62-3.49.13-.67,2.44-1.46,4.88-2.35,7.3l-7.65,20.42c-.11.28.1.58.4.58Z"/>
    <path class="st1" d="M74.08,66.87V4.74c0-2.62,2.12-4.74,4.74-4.74h0c2.62,0,4.74,2.12,4.74,4.74v62.13c0,2.62-2.12,4.74-4.74,4.74h0c-2.62,0-4.74-2.12-4.74-4.74Z"/>
    <path class="st1" d="M101.63,66.6h0c0-2.77,2.24-5.01,5.01-5.01h0c2.77,0,5.01,2.24,5.01,5.01h0c0,2.77-2.24,5.01-5.01,5.01h0c-2.77,0-5.01-2.24-5.01-5.01Z"/>
  </g>
</svg>