<?xml version="1.0" encoding="UTF-8"?>
<svg width="225px" height="44px" viewBox="0 0 225 44" version="1.1" xmlns="http://www.w3.org/2000/svg" xmlns:xlink="http://www.w3.org/1999/xlink">
    <!-- Generator: Sketch 63.1 (92452) - https://sketch.com -->
    <title>群組 9</title>
    <desc>Created with Sketch.</desc>
    <g id="page-2" stroke="none" stroke-width="1" fill="none" fill-rule="evenodd">
        <g id="01.1_關於王品-企業概況_a" transform="translate(-365.000000, -27.000000)">
            <g id="群組-9" transform="translate(365.644292, 27.806860)">
                <path d="M173.173426,15.4488994 C171.610311,15.4488994 170.589888,15.7297082 170.115444,16.2905048 C169.641001,16.8521225 169.403368,18.0582867 169.403368,19.9081764 C169.403368,21.6193038 169.659091,22.7581396 170.171358,23.3279681 C170.682803,23.8961543 171.711449,24.1818896 173.257296,24.1818896 C174.728318,24.1818896 175.696939,23.9060073 176.168916,23.3567058 C176.637604,22.8065832 176.873592,21.6726739 176.873592,19.9541568 C176.873592,18.0656764 176.645004,16.8422695 176.187828,16.2855783 C175.733119,15.7280661 174.728318,15.4488994 173.173426,15.4488994 L173.173426,15.4488994 Z M167.435702,14.2690097 L169.384456,14.2690097 L169.287429,15.6738749 L169.342521,15.7100024 C170.021707,14.6343896 171.482861,14.0957622 173.725984,14.0957622 C175.709273,14.0957622 177.072579,14.5136911 177.816723,15.3511911 C178.562512,16.18787 178.934174,17.7298553 178.934174,19.9779681 C178.934174,22.0626862 178.557579,23.5102475 177.803567,24.3206519 C177.049556,25.1294141 175.709273,25.5342058 173.781898,25.5342058 C171.585644,25.5342058 170.134356,25.0448431 169.425569,24.0636543 L169.384456,24.0636543 L169.384456,42.359745 L167.435702,42.359745 L167.435702,14.2690097 Z" id="Fill-2" fill="#C8C9C9"></path>
                <path d="M180.746762,14.2685992 L182.368257,14.2685992 L182.207916,15.5445551 L182.241629,15.5798614 C182.88628,14.5272389 183.946172,14.0017487 185.427883,14.0017487 C187.473664,14.0017487 188.499021,15.0576556 188.499021,17.1678271 L188.492443,17.9355355 L186.884926,17.9355355 L186.920283,17.6563688 C186.942484,17.3624227 186.954818,17.1629007 186.954818,17.0635502 C186.954818,15.9255355 186.33319,15.3548859 185.092401,15.3548859 C183.276853,15.3548859 182.368257,16.4748369 182.368257,18.7147389 L182.368257,25.3761482 L180.746762,25.3761482 L180.746762,14.2685992 Z" id="Fill-4" fill="#C8C9C9"></path>
                <polygon id="Fill-6" fill="#C8C9C9" points="190.084994 25.3765587 191.706489 25.3765587 191.706489 14.2690097 190.084994 14.2690097"></polygon>
                <path d="M194.565813,14.2685992 L196.188953,14.2685992 L196.154418,15.941957 L196.188953,15.9772634 C196.817981,14.7226556 198.028346,14.0953516 199.821694,14.0953516 C201.706311,14.0953516 202.850896,14.7226556 203.253803,15.9772634 L203.301494,15.9772634 C203.99877,14.7226556 205.274094,14.0953516 207.128288,14.0953516 C209.751295,14.0953516 211.062798,15.4361727 211.062798,18.1145306 L211.062798,25.3761482 L209.438836,25.3761482 L209.438836,17.9642732 C209.438836,16.9855477 209.263695,16.3221163 208.914235,15.9715158 C208.565597,15.6233786 207.904501,15.4484889 206.934235,15.4484889 C205.64411,15.4484889 204.770871,15.690707 204.312873,16.1751433 C203.854052,16.6620428 203.626287,17.585756 203.626287,18.9512095 L203.626287,25.3761482 L202.003147,25.3761482 L202.003147,18.1145306 L201.978479,17.6038198 C201.978479,16.1677536 201.160331,15.4484889 199.520747,15.4484889 C197.299002,15.4484889 196.188953,16.6554742 196.188953,19.0686237 L196.188953,25.3761482 L194.565813,25.3761482 L194.565813,14.2685992 Z" id="Fill-8" fill="#C8C9C9"></path>
                <path d="M221.983797,18.8631078 L221.971463,18.3384386 C221.971463,17.1355587 221.774944,16.3522499 221.378615,15.9909754 C220.982286,15.6297009 220.129603,15.4490636 218.8181,15.4490636 C217.498374,15.4490636 216.642402,15.661723 216.251007,16.0845783 C215.859611,16.5074337 215.663091,17.4344313 215.663091,18.8631078 L221.983797,18.8631078 Z M221.983797,22.0103014 L223.64805,22.0103014 L223.667784,22.4167352 C223.667784,23.5719926 223.315857,24.3807548 222.612003,24.8422009 C221.909794,25.303647 220.676405,25.53437 218.914304,25.53437 C216.861945,25.53437 215.516729,25.1599582 214.876189,24.4127769 C214.234827,23.6639533 213.914968,22.0948725 213.914968,19.6989656 C213.914968,17.4820538 214.236472,15.9950808 214.881123,15.2347622 C215.524952,14.4760857 216.786297,14.0951053 218.665159,14.0951053 C220.715051,14.0951053 222.056978,14.4276421 222.694229,15.0877891 C223.329836,15.7479362 223.64805,17.1396641 223.64805,19.2621519 L223.64805,20.1382426 L215.640068,20.1382426 C215.640068,21.8781078 215.828365,22.9873847 216.205782,23.4644313 C216.580733,23.94312 217.459728,24.1820538 218.841123,24.1820538 C220.152626,24.1820538 221.005309,24.0671029 221.395882,23.8388431 C221.787277,23.6114043 221.983797,23.1187573 221.983797,22.3592597 L221.983797,22.0103014 Z" id="Fill-9" fill="#C8C9C9"></path>
                <polygon id="Fill-10" fill="#FEFEFE" points="163.759135 13.4956359 160.517789 25.7666531 158.578902 25.7666531 155.381136 16.3086507 152.205571 25.7666531 150.279018 25.7666531 147.00396 13.4956359 149.171435 13.4956359 151.472116 22.9979766 154.579434 13.4956359 156.306178 13.4956359 159.492432 22.9979766 161.650862 13.4956359"></polygon>
                <polygon id="Fill-11" fill="#FEFEFE" points="132.377203 13.4956359 129.135036 25.7666531 127.196971 25.7666531 124.000027 16.3086507 120.826107 25.7666531 118.897909 25.7666531 115.623674 13.4956359 117.791149 13.4956359 120.091007 22.9979766 123.198325 13.4956359 124.925069 13.4956359 128.110501 22.9979766 130.268931 13.4956359"></polygon>
                <path d="M135.065991,19.6344288 C135.065991,17.061169 137.162752,14.9690612 139.738067,14.9690612 C142.314205,14.9690612 144.410144,17.061169 144.410144,19.6344288 C144.410144,22.2068676 142.314205,24.3006176 139.738067,24.3006176 C137.162752,24.3006176 135.065991,22.2068676 135.065991,19.6344288 M133.385293,19.6344288 C133.385293,23.133044 136.234421,25.9780808 139.738067,25.9780808 C143.240891,25.9780808 146.090841,23.133044 146.090841,19.6344288 C146.090841,16.1358136 143.240891,13.2899558 139.738067,13.2899558 C136.234421,13.2899558 133.385293,16.1358136 133.385293,19.6344288" id="Fill-12" fill="#FEFEFE"></path>
                <path d="M192.742207,9.08948276 C192.742207,10.1478529 191.882946,11.0058798 190.823054,11.0058798 C189.763162,11.0058798 188.904723,10.1478529 188.904723,9.08948276 C188.904723,8.03193374 189.763162,7.17390678 190.823054,7.17390678 C191.882946,7.17390678 192.742207,8.03193374 192.742207,9.08948276" id="Fill-13" fill="#FEFEFE"></path>
                <path d="M10.1187425,13.3515783 L4.45337706,13.3515783 L2.97906643,13.598723 C2.82365946,13.6791886 2.72087706,13.651272 2.69456477,13.515794 L2.43555314,12.5633431 C2.41088537,12.4286862 2.49064451,12.4024117 2.72087706,12.4541396 L4.45337706,12.646272 L10.1187425,12.646272 L10.1187425,3.70226462 L3.34086045,3.70226462 L1.86737208,3.92149256 C1.71360962,4.00195825 1.60836045,3.9732205 1.58451494,3.86401707 L1.32550331,2.88611266 C1.29919102,2.77690923 1.37648338,2.75063472 1.60836045,2.80400482 L3.34086045,2.9682205 L16.6104784,2.9682205 C16.8431777,2.9682205 16.9977624,2.88611266 17.1268571,2.72353913 L18.5485432,0.739813641 C18.6792824,0.549323445 18.8593571,0.549323445 19.0920565,0.684801386 C20.128103,1.33673766 20.9807857,2.15288962 21.6788837,3.13161511 C21.8079784,3.26709305 21.8334684,3.40339207 21.7833106,3.5125955 C21.7043737,3.64807345 21.5744568,3.70226462 21.3672475,3.70226462 L12.9111345,3.70226462 L12.9111345,12.646272 L15.2907525,12.646272 C15.5234518,12.646272 15.6796811,12.5633431 15.8079535,12.3736739 L17.227995,10.4178651 C17.3587342,10.2257328 17.542098,10.2257328 17.7723306,10.3612107 C18.8075548,10.9885146 19.6610598,11.8292989 20.3862923,12.8104877 C20.4882525,12.9451445 20.5145648,13.0518847 20.4635847,13.1627303 C20.4117824,13.2998504 20.2818654,13.3515783 20.0499884,13.3515783 L12.9111345,13.3515783 L12.9111345,23.2496788 L18.1357691,23.2496788 C18.3421561,23.2496788 18.4975631,23.1930244 18.6274801,23.0041764 L20.0746561,21.0171666 C20.2053953,20.8570563 20.3862923,20.8570563 20.5926794,20.9637965 C21.6287259,21.6157328 22.5068987,22.4327058 23.2058189,23.4106102 C23.3332691,23.5485514 23.3595814,23.6823872 23.3077791,23.7907695 C23.2321312,23.9278896 23.1005698,23.9820808 22.8686927,23.9820808 L2.04826909,23.9820808 L0.548468426,24.2275832 C0.393061449,24.30887 0.289456798,24.2809533 0.263144505,24.1462965 L0.00413287737,23.1930244 C-0.0197126376,23.0583676 0.0575797212,23.0304509 0.289456798,23.0846421 L2.04826909,23.2496788 L10.1187425,23.2496788 L10.1187425,13.3515783 Z" id="Fill-14" fill="#FEFEFE"></path>
                <path d="M47.464108,22.7314141 L47.464108,15.0108136 C47.3868156,14.8203234 47.2840332,14.7661323 47.127804,14.847419 L43.6891163,14.847419 L43.6891163,22.7314141 L47.464108,22.7314141 Z M43.6891163,24.1469533 C43.6891163,24.6067573 43.5320648,24.9606421 43.2475631,25.1774068 C42.8602791,25.4229092 42.4466827,25.504196 41.955794,25.5312916 C41.56851,25.5312916 41.3086761,25.4762793 41.0759767,25.2866102 C40.9460598,25.1774068 40.8704119,24.9335465 40.8950797,24.551745 L40.8950797,13.1625661 C40.8704119,12.9991715 40.9205698,12.9178847 41.0249967,12.9449803 C42.3702126,13.2996862 43.3528123,13.70612 43.9201711,14.1412916 L46.5851129,14.1412916 C46.946907,14.1412916 47.1796063,14.0871004 47.2840332,13.8974313 L47.9303289,12.8916102 C48.0594236,12.7544901 48.1885183,12.7265734 48.3702375,12.8103234 C49.377505,13.1625661 50.1800299,13.5985587 50.8263256,14.1150171 C51.3443488,14.5206298 51.2399219,14.9278847 50.5418239,15.2275783 C50.3625714,15.2842328 50.2573222,15.4180685 50.2573222,15.6093798 L50.2573222,24.0352867 C50.2573222,24.4450048 50.0509352,24.7701519 49.6628289,25.0140122 C49.2212757,25.2053234 48.860304,25.3145269 48.5248222,25.3145269 C48.1885183,25.3145269 47.9040166,25.2332401 47.7222973,25.0427499 C47.5405781,24.8793553 47.4386179,24.5804828 47.464108,24.1724068 L47.464108,23.4391837 L43.6891163,23.4391837 L43.6891163,24.1469533 Z M44.1290249,9.13928178 L44.1290249,2.8038406 C44.0492658,2.61499256 43.9481279,2.55915923 43.7910764,2.6667205 L36.0067492,2.6667205 L36.0067492,9.13928178 L44.1290249,9.13928178 Z M36.0067492,10.1196494 C36.0067492,10.6081911 35.8784767,10.9333382 35.5676628,11.1509239 C35.1803787,11.3956053 34.7651379,11.5048087 34.2734269,11.5302622 C33.8853206,11.5302622 33.626309,11.4497965 33.3952541,11.2584852 C33.2661595,11.1509239 33.1880448,10.9070636 33.2135349,10.5523578 L33.2135349,0.848031778 C33.1880448,0.654257269 33.2398472,0.574612661 33.3426296,0.602529327 C34.7125133,0.984330798 35.7477375,1.44577688 36.3956777,1.90886511 L43.2475631,1.90886511 C43.6110016,1.93513962 43.8445232,1.85303178 43.9481279,1.6617205 L44.5927791,0.654257269 C44.7218737,0.522063641 44.8517907,0.522063641 45.0326877,0.574612661 C46.0424219,0.954771975 46.8441246,1.39076462 47.4912425,1.88094845 C48.006799,2.31529894 47.9040166,2.72337492 47.2059186,2.99515188 C47.0250216,3.07643864 46.9205947,3.21273766 46.9205947,3.40322786 L46.9205947,10.0096249 C46.9205947,10.4423332 46.7396977,10.742848 46.3261013,10.9883504 C45.8878372,11.1788406 45.5243987,11.287223 45.1897392,11.287223 C44.8517907,11.287223 44.5927791,11.2067573 44.3872143,11.0138038 C44.2063173,10.8504092 44.1027126,10.5786323 44.1290249,10.1442818 L44.1290249,9.84623031 L36.0067492,9.84623031 L36.0067492,10.1196494 Z M36.1358438,22.7314141 L36.1358438,15.0108136 C36.0593737,14.8203234 35.9549468,14.7661323 35.8274967,14.847419 L32.3871644,14.847419 L32.3871644,22.7314141 L36.1358438,22.7314141 Z M32.3871644,24.0352867 C32.3871644,24.4983749 32.2317575,24.8530808 31.9201212,25.0698455 C31.5583272,25.3145269 31.1200631,25.4229092 30.6275299,25.451647 C30.2649136,25.451647 29.9804119,25.3687181 29.7477126,25.1774068 C29.6194402,25.0698455 29.5413256,24.8251641 29.5668156,24.4450048 L29.5668156,13.1625661 C29.5413256,12.9991715 29.5931279,12.9178847 29.6959103,12.9449803 C31.0419485,13.2996862 32.0229036,13.70612 32.6198638,14.1412916 L35.2560266,14.1412916 C35.6441329,14.1412916 35.8784767,14.0871004 35.9549468,13.8974313 L36.6283771,12.8916102 C36.7574717,12.7544901 36.8873887,12.7265734 37.0419734,12.8103234 C38.0763754,13.1625661 38.8780781,13.5985587 39.499706,14.1150171 C40.0415747,14.5206298 39.9387923,14.9278847 39.2127375,15.2275783 C39.0581528,15.2842328 38.9553704,15.4180685 38.9553704,15.6093798 L38.9553704,24.1469533 C38.9553704,24.551745 38.7481611,24.8793553 38.3362093,25.1232156 C37.9209684,25.3145269 37.5320399,25.4229092 37.1957359,25.4229092 C36.8873887,25.4229092 36.6020648,25.3424435 36.3956777,25.1527744 C36.2139585,24.9869166 36.1119983,24.687223 36.1358438,24.2807891 L36.1358438,23.4391837 L32.3871644,23.4391837 L32.3871644,24.0352867 Z" id="Fill-15" fill="#FEFEFE"></path>
                <path d="M63.2410407,13.5988872 L67.9221619,13.5988872 L67.9221619,11.1241568 L63.2410407,11.1241568 L63.2410407,13.5988872 Z M63.2410407,10.4180293 L67.9221619,10.4180293 L67.9221619,7.83491658 L63.2410407,7.83491658 L63.2410407,10.4180293 Z M63.2410407,7.1263259 L67.9221619,7.1263259 L67.9221619,4.54403423 L63.2410407,4.54403423 L63.2410407,7.1263259 Z M70.714554,24.9601494 C70.714554,25.4511543 70.4810324,25.7754803 70.0427683,26.0209828 C69.4737649,26.2632009 68.9022948,26.2402107 68.3341138,25.9413382 C68.0512566,25.750848 67.8966719,25.4757867 67.8966719,25.0972695 L67.8966719,19.9581396 C65.2572201,22.3515832 61.8958247,23.9535073 57.8873114,24.6350024 C57.7064144,24.6867303 57.6028098,24.6612769 57.5510075,24.5512524 C57.5230507,24.4165955 57.6028098,24.3353087 57.7565722,24.2277475 C59.4109576,23.6554558 61.1705922,22.7563749 62.956539,21.5617058 C64.6364144,20.3670367 65.853358,19.1165342 66.576946,17.8101984 L58.7408164,17.8101984 L57.2401935,18.0548798 C57.0839643,18.1369877 56.9811819,18.1115342 56.9556918,17.9735931 L56.7221703,17.0219632 C56.695858,16.8873063 56.7747948,16.8593896 56.9811819,16.9144019 L58.7408164,17.104071 L67.8966719,17.104071 L67.8966719,15.5834337 L67.8966719,15.2837401 C67.8966719,15.1737156 67.9460075,15.1203455 68.0767467,15.1203455 L70.8691387,15.5005048 C71.3600274,15.6359828 71.619039,15.8256519 71.619039,16.1245244 C71.619039,16.4242181 71.4134742,16.6155293 70.9735656,16.7501862 C70.8436487,16.7781029 70.765534,16.9144019 70.7408663,17.104071 L75.7336237,17.104071 C75.9646786,17.104071 76.1200855,17.0219632 76.2491802,16.8331151 L77.6708663,14.8764852 C77.8016055,14.685995 77.980858,14.685995 78.2160241,14.8206519 C79.2504261,15.4463136 80.1031088,16.2887401 80.8012068,17.2674656 C80.9294792,17.4029435 80.9557915,17.5384215 80.9039892,17.6188872 C80.8266968,17.7568283 80.6992467,17.8101984 80.4912151,17.8101984 L71.257245,17.8101984 C72.1633746,18.8431151 73.3778513,19.7676494 74.9310988,20.474598 C76.765559,21.3162033 78.5523281,21.6963627 80.3366304,21.615897 C80.4912151,21.615897 80.595642,21.6717303 80.595642,21.8080293 C80.621132,21.888495 80.595642,21.9976984 80.4912151,22.0789852 C79.9740141,22.3515832 79.5859078,22.7563749 79.3268962,23.2744754 C79.0941968,23.8204926 78.9651021,24.3353087 78.9914144,24.7704803 C78.9914144,24.987245 78.8623198,25.0693529 78.5778181,25.0143406 C76.8444958,24.5512524 75.3183829,23.6825514 73.9994792,22.3786788 C72.602461,20.9918774 71.4907666,19.5788014 70.714554,18.0844386 L70.714554,24.9601494 Z M63.2410407,15.0645122 C63.2410407,15.5005048 63.0330091,15.8256519 62.6449028,16.0169632 C62.0767217,16.2887401 61.4814061,16.2887401 60.8606005,15.9890465 C60.5752766,15.8010195 60.4223364,15.5005048 60.4478264,15.0645122 L60.4478264,7.39892394 C59.2571952,8.59523521 58.0665639,9.49267394 56.8775772,10.0616813 C56.7747948,10.1191568 56.695858,10.1191568 56.6457002,10.0354068 C56.6193879,9.9278455 56.6457002,9.81946315 56.7221703,9.73653423 C58.9480257,7.31763717 60.4478264,4.16223276 61.1969045,0.357355308 C61.2223945,0.223519524 61.3276437,0.142232759 61.4559161,0.142232759 C62.3867134,0.304806288 63.3166885,0.549487661 64.2499526,0.930468053 C64.6101021,1.09057835 64.8173114,1.30980629 64.7926437,1.55366658 C64.7663314,1.74415678 64.5591221,1.88127688 64.2228181,1.90837246 C64.0937234,1.90837246 63.9901188,1.98965923 63.9111819,2.17932835 L63.2410407,3.48484305 L63.2410407,3.83790678 L68.3102683,3.83790678 C68.7238646,2.58576217 69.0067217,1.39027197 69.137461,0.249794033 C69.1613065,0.0584827588 69.2418879,-0.0219829274 69.3956503,0.0051126608 C70.2475108,0.1939607 71.0755257,0.412367563 71.9043629,0.684965602 C72.3450938,0.821264622 72.5769709,1.03802933 72.5506586,1.30980629 C72.5251686,1.55366658 72.3450938,1.68914452 72.0087899,1.74415678 C71.8525606,1.77043129 71.6445291,1.90837246 71.4389643,2.15305384 C70.8691387,2.80416903 70.197353,3.37399746 69.5000772,3.83790678 L74.9310988,3.83790678 C75.1621536,3.83790678 75.2920706,3.75497786 75.4219875,3.56530874 L76.8691636,1.60867884 C76.9999028,1.42065188 77.1791553,1.42065188 77.3880091,1.55366658 C78.4487234,2.17932835 79.3005839,2.99465923 79.9995041,3.97338472 C80.1285988,4.10968374 80.1532666,4.24598276 80.1031088,4.35190188 C80.0249942,4.48984305 79.897544,4.54403423 79.6640224,4.54403423 L70.7408663,4.54403423 L70.7408663,7.1263259 L72.1888646,7.1263259 C72.4207417,7.1263259 72.5769709,7.04503913 72.7052433,6.85372786 L74.1293962,4.89874011 C74.2593131,4.70824992 74.4393879,4.70824992 74.6720872,4.84372786 C75.7056669,5.46774746 76.5608164,6.28389943 77.28276,7.29054158 C77.3880091,7.39892394 77.4134992,7.53522295 77.3616968,7.64278423 C77.3090722,7.77908325 77.1791553,7.83491658 76.9489227,7.83491658 L70.7408663,7.83491658 L70.7408663,10.4180293 L72.291647,10.4180293 C72.5251686,10.4180293 72.6805756,10.3351004 72.8104925,10.1446102 L74.2313563,8.18880139 C74.3612732,7.99666903 74.5429925,7.99666903 74.7756918,8.13296805 C75.8092716,8.75780874 76.6627766,9.60105629 77.3616968,10.5789607 C77.4932583,10.7152597 77.5171038,10.8244632 77.4628347,10.9328455 C77.3880091,11.0691445 77.28276,11.1241568 77.0508829,11.1241568 L70.7408663,11.1241568 L70.7408663,13.5988872 L74.6202849,13.5988872 C74.8538065,13.5988872 75.0067467,13.5159582 75.1383081,13.3254681 L76.5608164,11.3680171 C76.6890889,11.178348 76.8691636,11.178348 77.1026852,11.3138259 C78.1379095,11.9378455 78.9914144,12.7827352 79.6895124,13.7614607 C79.8186071,13.8977597 79.8432749,14.0315955 79.7922948,14.14162 C79.7150025,14.2500024 79.5859078,14.3050146 79.3786985,14.3050146 L63.2410407,14.3050146 L63.2410407,15.0645122 Z" id="Fill-16" fill="#FEFEFE"></path>
                <path d="M98.1829427,11.2588136 L100.923532,11.2588136 L100.923532,9.73653423 L98.1829427,9.73653423 L98.1829427,11.2588136 Z M98.1829427,9.03040678 L100.92271,9.03040678 L100.92271,7.75198766 C100.870908,7.61815188 100.766481,7.56149746 100.638208,7.61815188 L98.1829427,7.61815188 L98.1829427,9.03040678 Z M92.8283912,11.2588136 L95.5443131,11.2588136 L95.5443131,9.73653423 L92.8283912,9.73653423 L92.8283912,11.2588136 Z M95.5443131,7.61815188 L93.2419875,7.61815188 L92.8283912,7.69861756 L92.8283912,9.03040678 L95.5443131,9.03040678 L95.5443131,7.61815188 Z M91.6122699,18.4900514 C91.6385822,18.4087646 91.7150523,18.3545734 91.8178347,18.3833112 L91.8457915,18.3833112 C93.2666553,18.7347328 94.1990972,19.386669 94.6636736,20.2299166 C94.8182583,20.6913627 94.7927683,21.1273553 94.5872035,21.6446347 C94.4326188,22.0527107 94.1464726,22.2957499 93.7600108,22.3786788 C92.8793712,22.5420734 92.4139726,22.0527107 92.361348,20.9105906 C92.4139726,20.0394264 92.1541387,19.3070244 91.6640722,18.7076372 L91.6122699,18.4900514 Z M98.7231669,14.4946837 C96.7596121,14.9840465 94.5074443,15.4175759 91.9740639,15.8823063 C91.6122699,15.9619509 91.3787483,16.0440587 91.3532583,16.1803578 C91.2743214,16.370848 91.1468712,16.4537769 91.016132,16.4792303 C90.8607251,16.4792303 90.7316304,16.3987646 90.6798281,16.1803578 C90.3969709,15.2837401 90.1897616,14.4946837 90.111647,13.8419264 C90.086157,13.6793529 90.1626271,13.6235195 90.318034,13.6514362 C91.1468712,13.732723 92.6466719,13.7614607 94.8182583,13.732723 L95.5443131,13.732723 L95.5443131,11.9657622 L92.7765889,11.9657622 C92.6992965,12.2112646 92.5948696,12.4288504 92.4139726,12.5635073 C92.0521786,12.7827352 91.6640722,12.8911176 91.1978513,12.9173921 C90.8607251,12.9173921 90.603358,12.8352842 90.3698364,12.6743529 C90.2423862,12.5635073 90.1897616,12.3475636 90.2152516,11.9928578 L90.2152516,6.14677933 C90.1897616,5.98584795 90.2423862,5.90374011 90.318034,5.9308357 C91.1723613,6.11968374 92.0003762,6.44729403 92.7765889,6.91120335 L95.5443131,6.91120335 L95.5443131,5.3864607 L91.3277683,5.3864607 L89.6725606,5.60568864 C89.594446,5.65823766 89.5163314,5.63360531 89.4900191,5.5235808 L89.2844543,4.59904648 C89.2589643,4.48984305 89.3362566,4.46356854 89.5163314,4.48984305 L91.3277683,4.68115433 L95.5443131,4.68115433 L95.5443131,2.6415955 C95.5188231,2.55866658 95.5681586,2.53239207 95.6980756,2.55866658 C96.6551852,2.58576217 97.536647,2.6949656 98.3621952,2.91501462 C98.6984992,3.02421805 98.8802184,3.1555906 98.8802184,3.34936511 C98.8802184,3.59240433 98.7231669,3.75497786 98.4131752,3.86418129 C98.2594128,3.9208357 98.1549859,4.00212246 98.1829427,4.16223276 L98.1829427,4.68115433 L100.794438,4.68115433 C100.97369,4.68115433 101.103607,4.59904648 101.180077,4.46356854 L102.189811,2.96838472 C102.319728,2.75079894 102.499803,2.6949656 102.70619,2.85836021 C103.301506,3.32226952 103.766082,3.9208357 104.207635,4.6515955 C104.363042,4.84372786 104.4132,5.03503913 104.337552,5.16887492 C104.284105,5.30517394 104.155011,5.3864607 103.948624,5.3864607 L98.1829427,5.3864607 L98.1829427,6.91120335 L100.482801,6.91120335 C100.587228,6.91120335 100.690011,6.85372786 100.766481,6.71907099 L101.413599,6.04003913 C101.491713,5.95793129 101.543516,5.95793129 101.67261,6.01294354 C102.499803,6.28389943 103.251348,6.69279648 103.948624,7.26262492 C104.492137,7.58941413 104.439512,7.94329894 103.766082,8.26844599 C103.611497,8.35137492 103.53585,8.45893619 103.53585,8.70443864 L103.53585,11.638973 C103.51036,11.9657622 103.381265,12.2112646 103.120609,12.4025759 C102.836107,12.5635073 102.448823,12.6743529 101.85433,12.7014484 C101.491713,12.7014484 101.259014,12.592245 101.103607,12.4025759 L100.949022,11.9657622 L98.1829427,11.9657622 L98.1829427,13.5988872 L99.8611736,13.4330293 C99.5528264,13.1899901 99.2411902,13.0265955 98.8802184,12.9715832 L98.7503015,12.8106519 C98.7231669,12.7269019 98.7749693,12.6743529 98.8802184,12.6456151 C100.327395,12.2654558 101.543516,12.5093161 102.57874,13.3517426 C102.836107,13.6514362 103.018649,14.0061421 103.042494,14.4396715 C103.095941,14.8477475 102.96438,15.1457989 102.6807,15.3650269 C102.422511,15.6097082 102.111697,15.6630783 101.777037,15.5259582 C101.491713,15.4175759 101.285326,15.2008112 101.051805,14.8206519 L100.509114,14.0866078 L98.7231669,14.4946837 Z M91.2241636,17.9185808 L89.594446,18.1369877 C89.4900191,18.192821 89.413549,18.1649043 89.388059,18.0548798 L89.1816719,17.1287033 C89.1545374,17.0219632 89.2318297,16.9965097 89.413549,17.0219632 L91.2241636,17.2124533 L98.4657998,17.2124533 L98.4657998,15.4175759 C98.4657998,15.2837401 98.5184244,15.2558234 98.6475191,15.2558234 C99.4212649,15.2558234 100.250102,15.3100146 101.129097,15.4463136 C101.543516,15.5538749 101.750725,15.7197328 101.750725,15.9619509 C101.750725,16.2066323 101.595318,16.370848 101.309994,16.4792303 C101.180077,16.5063259 101.103607,16.6409828 101.103607,16.8593896 L101.103607,17.2124533 L101.232702,17.2124533 C101.413599,17.2124533 101.517203,17.1590832 101.595318,17.0219632 L102.57874,15.5538749 C102.70619,15.3100146 102.887909,15.2837401 103.120609,15.4742303 C103.665767,15.9077597 104.104031,16.4537769 104.515983,17.187821 C104.67139,17.376669 104.724014,17.5384215 104.646722,17.7018161 C104.595742,17.8389362 104.465002,17.9185808 104.258615,17.9185808 L101.103607,17.9185808 L101.103607,20.9368651 C101.156232,21.5617058 100.949022,22.1060808 100.509114,22.569169 C100.042071,23.0585318 99.3456171,23.3294877 98.3367051,23.4107744 C98.2339227,23.4107744 98.1549859,23.3549411 98.1829427,23.249022 C98.2594128,22.244022 97.8203264,21.4270489 96.8360822,20.8563994 C96.7078098,20.8013872 96.6551852,20.6913627 96.6806752,20.5558847 C96.7078098,20.4195857 96.7851021,20.3670367 96.9141968,20.3933112 L97.6904095,20.4491445 C98.2339227,20.5033357 98.4657998,20.33912 98.4657998,19.931044 L98.4657998,17.9185808 L91.2241636,17.9185808 Z M105.215725,23.8993161 L105.215725,2.15305384 C105.163923,1.98965923 105.085808,1.93464697 104.955891,2.04385041 L88.6126686,2.04385041 L88.6126686,23.8993161 L105.215725,23.8993161 Z M88.2500523,25.667098 C87.9400606,25.9413382 87.5009742,26.0735318 86.9311487,26.1022695 C86.5948447,26.1022695 86.3366553,25.992245 86.1565806,25.803397 C85.9978845,25.667098 85.923059,25.4511543 85.923059,25.0972695 L85.923059,0.33025972 L85.9732168,0.114316092 L86.2067384,0.114316092 C87.0331088,0.357355308 87.9655507,0.71206119 88.9999526,1.2827107 L104.258615,1.2827107 C104.492137,1.30980629 104.67139,1.25561511 104.751149,1.12013717 L105.473914,0.276068543 C105.628499,0.0313871706 105.811041,-0.0219829274 106.016605,0.0584827588 C107.051007,0.466558739 107.880667,0.847539131 108.397046,1.30980629 C108.990717,1.77043129 108.914247,2.20724501 108.138034,2.50611756 C107.982627,2.58576217 107.930002,2.6949656 107.930002,2.80416903 L107.930002,24.7162891 C107.930002,25.0972695 107.775418,25.3944999 107.439936,25.584169 C107.1283,25.803397 106.714703,25.9126004 106.172012,25.9126004 C105.811041,25.9126004 105.577519,25.803397 105.397444,25.6120857 C105.267527,25.4757867 105.215725,25.3140342 105.215725,25.0430783 L105.215725,24.6070857 L88.5863563,24.6070857 C88.5863563,25.123544 88.4835739,25.4757867 88.2500523,25.667098 L88.2500523,25.667098 Z" id="Fill-17" fill="#FEFEFE"></path>
            </g>
        </g>
    </g>
</svg>